<?xml version="1.0" encoding="UTF-8"?>
<svg id="Layer_1" data-name="Layer 1" xmlns="http://www.w3.org/2000/svg" xmlns:xlink="http://www.w3.org/1999/xlink" viewBox="0 0 289.038 414.027">
  <defs>
    <style>
      .cls-1 {
        fill: none;
      }

      .cls-2 {
        clip-path: url(#clippath);
      }

      .cls-3 {
        fill: #fff3e7;
      }

      .cls-4 {
        fill: #fe4030;
      }

      .cls-5 {
        fill: #fbe8dd;
      }

      .cls-6 {
        fill: #b28965;
      }

      .cls-7 {
        fill: #db2420;
      }

      .cls-8 {
        fill: #1f1c42;
      }

      .cls-9 {
        fill: #1c28ce;
      }

      .cls-10 {
        fill: #181845;
      }

      .cls-11 {
        fill: #9a7459;
      }

      .cls-12 {
        fill: #2744ff;
      }

      .cls-13 {
        clip-path: url(#clippath-1);
      }
    </style>
    <clipPath id="clippath">
      <path class="cls-1" d="m224.736,393.525c2.628,2.568,5.783,2.812,9.131,2.072.885-.196,1.734-.562,2.595-.864,1.932-.676,2.471-1.587,2.175-3.643-.042-.289-.065-.58-.096-.871.042,0,.09.015.124-.001,2.795-1.348,5.031.278,7.371,1.403,1.501.721,2.997,1.473,4.554,2.047,3.717,1.369,7.19,3.277,10.805,4.866,2.58,1.134,5.044,2.604,7.9,2.984,1.68.224,3.362.444,5.049.601,1.305.121,2.294.93,3.413,1.46.036.017.064.053.095.082,1.076,1.01.814,5.501-.366,6.393-.298.225-.633.19-.959.179-1.533-.054-3.061.056-4.601-.194-.952-.155-1.972.181-2.961.184-5.895.023-11.791.014-17.686.013-5.77,0-11.543.088-17.31-.038-3.733-.081-7.458.167-11.188.056-.773-.023-1.42-.201-1.466-1.002-.141-2.432-1.101-4.776-.81-7.238.257-2.169.848-4.278,1.599-6.318.307-.834,1.171-1.288,1.979-1.646.282-.125.526-.236.654-.528Z"/>
    </clipPath>
    <clipPath id="clippath-1">
      <path class="cls-1" d="m27.636,304.019c-1.187,2.096-1.387,4.374-.912,6.641.392,1.867,1.27,3.601,2.334,5.227.629.96,1.394,1.48,2.616,1.374,1.093-.094,2.199-.034,3.3-.042.051,1.925-.35,3.784-.818,5.64-.93,3.683-1.752,7.394-2.766,11.054-.773,2.789-1.505,5.586-2.15,8.403-.521,2.273-1.41,4.451-.954,6.933.349,1.897-.062,3.918.117,5.861.148,1.6-1.462,3.219-2.801,3.591-.525.146-1.071.238-1.614.299-2.208.245-3.393-.584-3.703-3.021-.459-3.613-1.034-7.207-1.644-10.793-.317-1.866-.524-3.759-1.12-5.597-.493-1.521-.519-3.181-.891-4.748-.565-2.378-.768-4.811-1.243-7.206-.544-2.75-1.067-5.516-1.577-8.277-.93-5.038-1.516-10.136-2.72-15.127-.175-.724-.029-1.09.917-1.343,2.154-.576,4.259-1.331,6.468-1.72,2.593-.456,5.134-.282,7.61.604,1.046.374,1.185,1.396,1.55,2.247Z"/>
    </clipPath>
  </defs>
  <g>
    <path class="cls-6" d="m157.517,278.418c-1.121,2.218-1.387,4.684-2.016,7.043-.781,2.926-1.411,5.892-2.375,8.77-1.088,3.249-3.553,4.896-6.721,5.405-3.528.567-6.979,1.462-10.481,2.128-6.153,1.17-12.324,2.221-18.507,3.212-3.807.611-7.603,1.289-11.415,1.868-4.919.748-9.85,1.418-14.774,2.139-4.019.588-8.032,1.218-12.052,1.8-5.254.761-10.516,1.472-15.763,2.262-3.723.56-7.496.822-11.174,1.68-3.908.539-7.818,1.068-11.724,1.621-1.85.262-3.694.572-5.541.86-1.08.008-2.166-.052-3.238.042-1.199.105-1.95-.414-2.567-1.374-1.044-1.624-1.906-3.357-2.291-5.223-.467-2.265-.27-4.541.895-6.636,3.497-1.134,6.994-2.267,10.492-3.401,3.855-1.159,7.719-2.287,11.561-3.484,7.57-2.359,15.245-4.335,22.891-6.421,5.326-1.453,10.687-2.771,16.084-3.887,4.417-.913,8.846-1.798,13.288-2.607,4.157-.758,8.285-1.669,12.442-2.428,4.892-.893,9.797-1.718,14.705-2.517.918-.149,1.364-.481,1.255-1.435-.132-1.153-.242-2.308-.361-3.461.241-1.148.091-2.297.031-3.45-.12-2.298-.192-4.598-.284-6.897.76-.233,1.541-.261,2.331-.302,3.284-.172,6.551.241,9.829.251,2.243.006,4.46.365,6.681.623,3.742.435,7.475.944,11.212,1.422-.136,1.703-.516,3.357-1.009,4.988-.33,1.035-.709,2.06-.686,3.172.056,1.462-.942,2.745-.716,4.236Z"/>
    <path class="cls-11" d="m208.773,351.135c-.876-2.768-1.689-5.558-2.643-8.299-1.447-4.16-2.603-8.403-3.749-12.648-2.023-7.489-4.038-14.981-5.99-22.489-1.514-5.821-2.875-11.68-4.234-17.539-.659-2.843-2.185-5.378-3.517-7.959-.757-1.468-1.282-3.068-2.392-4.343-1.107-2.58-2.641-4.939-3.864-7.459-.206-1.683,1.097-.955,1.653-.873,4.405.653,8.826.433,13.246.387l.262-.117c.153-.015.307-.029.46-.044.211.142.438.182.683.109.21-.022.419-.045.629-.067,0,0,.083.028.083.028l.063-.072c3.394-.463,6.826-.679,10.13-1.715.623-.196,1.418-.347,1.932.399-.655,1.479.164,2.855.357,4.257.902,6.562,3.048,12.833,4.637,19.235,1.221,4.916,2.487,9.822,3.618,14.758,1.864,8.133,3.644,16.285,5.442,24.433.769,3.485,1.488,6.982,2.246,10.47.105.483.302.946.457,1.419.722,4.087,1.66,8.129,2.539,12.183,1.839,8.479,3.621,16.971,5.465,25.449.697,3.204,1.501,6.385,2.256,9.577.032.286.054.574.096.859.297,2.029-.242,2.927-2.175,3.595-.861.297-1.71.659-2.595.852-3.348.73-6.503.49-9.131-2.045-4.582-10.617-8.395-21.531-12.466-32.344-1.244-3.303-2.336-6.663-3.497-9.996Z"/>
    <path class="cls-10" d="m156.537,51.902c-2.308-1.273-3.88-3.255-5.036-5.536-1.222-2.412-2.004-4.997-2.353-7.694.079-.229.08-.446-.107-.632-.031-.38-.062-.761-.093-1.14.058-.123.095-.245-.045-.343-.215-1.862-.29-3.723.08-5.574.142-.712.039-1.077-.827-1.021-6.345.416-13.288-4.17-15.378-11.747,0,0,.043-.095.043-.095l-.068-.084c-.037-.29-.074-.58-.111-.869,0,.001.047-.095.047-.095l-.09-.058c-1.162-8.546,5.108-16.133,13.928-16.854,0,0,.09.049.09.049l.071-.074c.784-.19,1.571-.162,2.357-.028,0,0,.064.082.064.082l.091-.054c6.78.444,12.46,6.279,13.057,13.217.13,1.513.15,1.509,1.595,1.11.4-.11.805-.199,1.207-.298.167.077.295.04.374-.132.37-.091.74-.183,1.109-.274,0,0,.062.052.062.052l.054-.071c.209-.026.418-.052.627-.078,0,0,.088.044.088.044l.056-.079c5.43-.702,10.713-.295,15.641,2.304,2.425,1.278,4.335,3.101,5.037,5.882.34,1.349.07,2.736.108,4.106-.387.146-.556.476-.709.825-.921,2.099-2.344,3.778-4.096,5.261-3.175,2.689-7.036,4.041-10.718,5.754-.559.26-.865-.007-1.138-.417-1.085-1.631-2.799-2.095-4.553-2.161-4.188-.158-7.022,3.923-5.631,7.94.255.738.275,1.397-.414,2.029-1.725,1.583-2.753,3.616-3.479,5.814-.163.13-.227.291-.157.495-.023.1-.046.201-.069.301-.238.048-.476.095-.713.143Z"/>
    <path class="cls-6" d="m157.251,51.759c.023-.1.046-.201.069-.301.052-.165.105-.33.157-.495.726-2.198,1.753-4.232,3.479-5.814.689-.632.67-1.291.414-2.029-1.39-4.018,1.443-8.098,5.631-7.94,1.754.066,3.467.53,4.553,2.161.273.41.578.677,1.138.417,3.682-1.713,7.543-3.064,10.718-5.754,1.751-1.483,3.174-3.162,4.096-5.261.153-.349.322-.679.709-.825,1.102,2.008,1.565,4.227,2.003,6.434.433,2.181.695,4.396,1.032,6.596.066,1.699.205,3.399.184,5.097-.061,4.991-.517,9.937-1.997,14.739-.472,1.531-1.206,2.934-2.277,4.114-1.395,1.536-3.281,1.568-5.105,1.24-3.819-.686-7.507-1.798-10.762-4.026-.069-.047-.135-.098-.209-.137-.435-.228-.949-.67-1.359-.399-.482.319-.235.981-.159,1.5.384,2.619.778,5.236,1.167,7.854-1.432-.198-2.872-.353-4.294-.604-2.352-.415-4.693-.893-7.038-1.344-.73-.786-1.643-1.06-2.696-1.019-.747.029-1.497-.02-2.245-.034.115-1.909.54-3.762,1.031-5.601.704-2.635,1.001-5.366,1.875-7.96.144-.196.017-.3-.135-.397,0,0,.005.007.005.007.013-.073.019-.146.018-.22Z"/>
    <path class="cls-8" d="m224.736,393.475c2.628,2.535,5.783,2.775,9.131,2.045.885-.193,1.734-.555,2.595-.852,1.932-.668,2.471-1.566,2.175-3.595-.042-.285-.065-.573-.096-.859.042,0,.09.015.124-.001,2.795-1.33,5.031.275,7.371,1.385,1.501.712,2.997,1.454,4.554,2.02,3.717,1.351,7.19,3.234,10.805,4.803,2.58,1.12,5.044,2.57,7.9,2.945,1.68.221,3.362.439,5.049.593,1.305.12,2.294.918,3.413,1.441.036.017.064.053.095.081,1.076.997.814,5.43-.366,6.31-.298.222-.633.188-.959.176-1.533-.053-3.061.055-4.601-.191-.952-.152-1.972.178-2.961.182-5.895.022-11.791.013-17.686.013-5.77,0-11.543.087-17.31-.037-3.733-.08-7.458.165-11.188.055-.773-.023-1.42-.198-1.466-.989-.141-2.4-1.101-4.714-.81-7.144.257-2.141.848-4.222,1.599-6.236.307-.823,1.171-1.271,1.979-1.624.282-.123.526-.233.654-.521Z"/>
    <path class="cls-8" d="m27.773,304.017c-1.165,2.095-1.362,4.371-.895,6.636.385,1.866,1.247,3.599,2.291,5.223.617.96,1.368,1.479,2.567,1.374,1.072-.094,2.158-.034,3.238-.042.05,1.924-.343,3.782-.803,5.636-.912,3.68-1.719,7.389-2.715,11.046-.758,2.787-1.477,5.582-2.11,8.397-.511,2.272-1.384,4.447-.936,6.928.342,1.896-.061,3.915.115,5.856.145,1.599-1.435,3.216-2.749,3.588-.515.146-1.051.238-1.584.298-2.166.245-3.33-.584-3.634-3.019-.451-3.61-1.015-7.202-1.613-10.785-.311-1.864-.514-3.757-1.099-5.593-.484-1.52-.509-3.179-.874-4.744-.554-2.376-.754-4.808-1.219-7.201-.534-2.748-1.047-5.512-1.547-8.271-.913-5.035-1.487-10.129-2.669-15.116-.171-.723-.028-1.089.899-1.342,2.114-.576,4.179-1.33,6.348-1.718,2.544-.456,5.038-.281,7.468.604,1.027.374,1.163,1.395,1.522,2.246Z"/>
    <path class="cls-11" d="m148.902,36.557c.14.098.103.22.045.343-.084,0-.156-.027-.213-.086.057-.086.112-.172.168-.257Z"/>
    <path class="cls-6" d="m165.432,14.031c-.08.173-.208.209-.374.132.081-.171.209-.203.374-.132Z"/>
    <polygon class="cls-11" points="149.199 .135 149.108 .189 149.043 .107 149.134 .049 149.199 .135"/>
    <polygon class="cls-11" points="146.686 .135 146.615 .21 146.525 .16 146.599 .077 146.686 .135"/>
    <polygon class="cls-6" points="132.752 18.036 132.82 18.12 132.777 18.216 132.712 18.132 132.752 18.036"/>
    <polygon class="cls-6" points="132.597 17.015 132.687 17.072 132.64 17.167 132.551 17.111 132.597 17.015"/>
    <polygon class="cls-6" points="166.657 13.739 166.602 13.81 166.541 13.758 166.593 13.706 166.657 13.739"/>
    <polygon class="cls-11" points="167.427 13.626 167.371 13.705 167.283 13.661 167.344 13.575 167.427 13.626"/>
    <path class="cls-12" d="m199.316,269.793c-.21.022-.419.045-.628.068-.205-.176-.445-.134-.683-.109-.153.015-.307.029-.46.044-.087.039-.174.078-.262.117-4.419.046-8.84.266-13.246-.387-.556-.082-1.859-.81-1.653.873-.689-1.143-1.654-1.598-3.019-1.455-1.065.112-2.18.106-3.225-.096-.683-.132-1.266-1.016-1.924.049-.09.145-.43.03-.54-.156-.559-.952-1.483-.721-2.337-.777-1.109-.072-2.307.344-3.311-.26-.983-.592-1.979-.79-3.082-.736-1.379.067-2.743.062-3.93-.832-.314-.237-.714-.182-1.089-.114-3.737-.478-7.47-.987-11.212-1.422-2.221-.258-4.437-.617-6.681-.623-3.278-.009-6.545-.422-9.829-.251-.79.041-1.571.069-2.331.302-1.57.078-3.238-.568-4.661.65-.142.121-.554.288-.662.021-.281-.695-.671-.317-.983-.132-.604.358-1.242.41-1.92.415-.783.006-1.586-.152-2.344.186-2.47,1.101-5.284,1.289-7.578,2.851-.566.386-1.345.7-.741,1.629-1.592-.222-2.53-.871-3.11-2.631-2.641-8.026-2.911-16.228-2.431-24.546.425-7.357,1.482-14.615,2.971-21.826,1.245-6.028,2.835-11.958,4.713-17.816.189-.588.411-1.182.361-1.823.457-.012.914-.035,1.371-.035,19.432-.002,38.864-.001,58.295-.001.374,0,.749-.007,1.123-.002.602.008,1.025-.204,1.235-.824.159-.469.418-.905.632-1.355.183-.226.282-.476.219-.772.142-.703.283-1.405.425-2.108.188-.17.207-.389.182-.621.04-.102.08-.205.12-.307.033-.073.066-.146.099-.218.197-.952.394-1.905.591-2.857.186-.178.202-.399.158-.635.035-.046.051-.097.049-.154.13-.095.202-.211.135-.377.235-1.843.469-3.686.704-5.529.024-.023.072-.053.068-.069-.015-.057-.048-.109-.074-.163.004-.259.008-.518.012-.778.023-.021.068-.048.064-.062-.014-.053-.045-.101-.069-.151.006-.266.011-.533.017-.799.218-.261.125-.578.155-.873.043-.141.086-.283.129-.424.058-.029.079-.075.064-.139l.095-1.665c5.141-.23,10.282-.115,15.424-.06,1.333,3.625,2.577,7.287,4.022,10.867,1.896,4.699,3.949,9.334,5.938,13.995,3.361,7.876,6.695,15.758,8.954,24.047,1.815,6.66,3.31,13.386,4.242,20.225.583,4.277,1.145,8.562,1.359,12.881.018.369.103.738.181,1.102.177.826-.006,1.501-.816,1.879-2.37,1.107-4.595,2.515-7.069,3.407-.514-.746-1.309-.595-1.932-.399-3.303,1.036-6.736,1.253-10.129,1.715-.055-.006-.104.008-.146.044Z"/>
    <path class="cls-7" d="m215.789,139.57c.397.053.795.105,1.192.158.388.286.823.289,1.271.213,2.491.075,4.979.103,7.451-.293.373.106.725.076,1.046-.158.077-.007.154-.013.231-.018.281.051.558.075.797-.131.145-.024.29-.047.434-.071.188.163.361.125.523-.042,4.642-.567,9.118-1.855,13.577-3.185,4.54-1.353,9.019-2.902,13.467-4.538.805-.296,1.703-.67,2.309.399-.052.561.164,1.07.417,1.528,1.752,3.176,2.843,6.665,4.675,9.802.029.162.058.324.087.485-.019.401-.038.802-.058,1.203-7.81,7.928-16.866,14.134-26.719,19.21-4.58,2.359-9.278,4.483-14.18,6.096-2.323.765-4.707,1.346-7.064,2.01-.369-.061-.722-.049-1.02.218-1.327.26-2.654.52-3.98.78-.445-.053-.891-.109-1.293.168-2.123.33-4.264.459-6.407.566-.136-2.511-.817-4.919-1.46-7.324-2.746-10.267-6.813-20.066-10.717-29.919-3.492-8.811-6.915-17.644-9.775-26.685-1.417-4.481-2.652-9.01-3.656-13.601.064-.251.073-.491-.141-.684-.269-1.283-.537-2.566-.806-3.85.031-.318.078-.639-.166-.907-.503-3.423-1.006-6.845-1.51-10.268.021-.023.064-.054.059-.068-.02-.054-.055-.103-.084-.153-.101-1.526-.202-3.051-.303-4.577,0-.404-.26-1.356-.016-1.42,4.249,5.646,8.166,13.13,11.192,19.481,3.129,6.567,5.839,13.314,8.723,19.986,1.88,4.348,3.723,8.708,5.899,12.917,1.3,2.514,2.768,4.92,4.603,7.098,2.781,3.302,6.418,4.897,10.59,5.487.253.186.517.269.811.09Z"/>
    <path class="cls-5" d="m175.989,91.905c.269,1.283.537,2.566.806,3.849-.067.251-.066.489.141.685,1.004,4.591,2.239,9.12,3.656,13.601,2.86,9.042,6.284,17.874,9.775,26.685,3.904,9.853,7.971,19.652,10.717,29.919.643,2.405,1.324,4.813,1.46,7.324.017.979.09,1.947-.038,2.938-.233,1.809-1.466,3.033-3.306,3.064-1.497.024-2.994.039-4.491.059-5.141-.055-10.283-.17-15.424.06-.019-.371-.083-.745-.049-1.111.454-4.933.063-9.856-.172-14.78.018-.022.057-.052.052-.063-.021-.048-.054-.091-.083-.136-.16-3.959-.6-7.893-1.074-11.823-.077-.609-.126-1.165-.196-1.908-.024-.371-.049-.742-.073-1.113.036-.066.025-.124-.032-.175-.32-2.276-.641-4.552-.961-6.828.032-.071.02-.135-.036-.19-.482-2.849-.965-5.697-1.447-8.546.03-.054.025-.105-.017-.151-.06-.362-.12-.725-.18-1.087l.044-.077-.066-.068c-2.148-11.691-4.672-23.299-7.601-34.821-2.037-8.014-4.181-15.998-6.449-23.949-.592-2.074-1.315-4.118-1.548-6.282,2.346.451,4.686.929,7.038,1.344,1.423.251,2.862.406,4.294.604.949.23,2.139.192,2.779.767.637.572.133,1.792.226,2.722.061.608.148,1.213.224,1.819.026.625.026,1.024.026,1.694.101,1.526.202,3.051.302,4.576-.012.024-.039.052-.034.073.012.051.038.099.059.149.503,3.423,1.006,6.845,1.509,10.267-.093.329-.023.629.166.907Z"/>
    <path class="cls-6" d="m263.18,143.233c-1.832-3.136-2.923-6.626-4.675-9.802-.253-.458-.469-.967-.417-1.528.289.051.572.085.846-.078,2.512-1.49,5.312-2.354,7.917-3.631,1.568-.768,2.782-2.096,4.035-3.297,4.519-4.332,9.419-8.146,14.85-11.268.25-.144.524-.318.797-.337.761-.052,1.617-.414,2.231.319.623.744.028,1.408-.282,2.063-.894,1.89-2.328,3.432-3.373,5.231-.9,1.55-1.759,3.121-2.436,4.771-1.036,2.524-.21,3.813,2.517,4.011.88.064,1.734.16,2.551.493.592.241,1.176.56,1.237,1.257.06.683-.543.986-1.029,1.29-2.33,1.458-5,2.012-7.599,2.677-3.007.769-6.021,1.563-9.129,1.879-.657.067-1.242.417-1.782.841-1.861,1.463-3.707,2.95-5.726,4.195-.372.229-.495.527-.533.912Z"/>
    <path class="cls-6" d="m218.253,139.94c-.448.076-.884.074-1.271-.213.442-.036.884-.073,1.271.213Z"/>
    <path class="cls-6" d="m208.952,173.402c.402-.277.848-.221,1.293-.168-.406.245-.84.28-1.293.168Z"/>
    <path class="cls-6" d="m263.209,144.921c.019-.401.038-.802.058-1.203.33.418.355.821-.058,1.203Z"/>
    <path class="cls-6" d="m226.75,139.49c-.321.234-.673.264-1.046.158.318-.254.681-.216,1.046-.158Z"/>
    <path class="cls-6" d="m214.225,172.454c.299-.267.652-.279,1.02-.218-.302.25-.651.281-1.02.218Z"/>
    <path class="cls-6" d="m215.789,139.57c-.293.179-.558.097-.811-.09.28-.062.554-.062.811.09Z"/>
    <path class="cls-6" d="m227.778,139.34c-.239.206-.516.182-.797.131.244-.177.505-.247.797-.131Z"/>
    <path class="cls-6" d="m228.735,139.227c-.162.167-.334.205-.523.042.174-.014.348-.028.523-.042Z"/>
    <path class="cls-4" d="m114.894,153.954c-1.171,4.757-2.43,9.493-3.422,14.294.048.269.058.529-.171.733-.069.367-.131.734-.207,1.1-1.108,5.358-2.23,10.713-2.879,16.153-.014.082-.027.163-.041.244-.546,3.499-.947,7.015-1.191,10.548-.01.138-.02.276-.03.413-.031.257-.061.514-.092.772.121.42.205.837-.115,1.215q-.374,1.545,1.18,1.547c1.854.007,3.708.023,5.562.035.457-.012.914-.035,1.371-.035,19.432-.002,38.864-.001,58.295-.001.374,0,.749-.007,1.123-.002.602.008,1.025-.204,1.235-.824.159-.469.418-.905.632-1.355-.047-.292.015-.553.219-.773.141-.702.283-1.404.424-2.107-.072-.247-.065-.47.182-.622.04-.102.08-.204.119-.306.033-.073.066-.146.099-.219.197-.952.394-1.904.591-2.857-.066-.242-.08-.471.159-.636.034-.045.051-.096.048-.154-.037-.156-.016-.29.136-.377.234-1.843.469-3.686.704-5.529-.055-.076-.057-.153-.006-.232.004-.259.008-.518.012-.778-.055-.07-.056-.141-.005-.213.006-.266.011-.533.017-.799-.089-.316-.095-.618.156-.873.043-.141.086-.282.128-.423l-.015-.091s.079-.05.079-.049c.031-.554.063-1.109.095-1.664-.019-.371-.083-.745-.049-1.111.454-4.933.063-9.856-.172-14.78-.059-.06-.069-.126-.032-.199-.159-3.958-.6-7.892-1.073-11.823-.1-.656-.029-.187-.196-1.909-.024-.37-.049-.741-.073-1.112l-.077-.081s.044-.096.045-.095c-.32-2.275-.64-4.551-.96-6.827-.03-.042-.065-.083-.087-.129-.005-.01.032-.041.05-.062-.482-2.848-.964-5.696-1.447-8.545l-.085-.069s.067-.084.067-.083c-.06-.362-.12-.724-.18-1.086-.04-.044-.048-.093-.022-.145-2.147-11.69-4.672-23.298-7.601-34.82-2.037-8.014-4.181-15.998-6.449-23.949-.592-2.074-1.315-4.118-1.548-6.282-.73-.786-1.643-1.06-2.696-1.019-.747.029-1.497-.02-2.245-.034-2.056.088-4.068-.05-5.975,1.245-5.017,3.408-10.078,6.751-14.884,10.454-7.687,5.922-14.904,12.363-21.531,19.467-4.173,4.473-8.189,9.06-11.892,13.938-4.028,5.306-7.791,10.775-11.251,16.466-5.609,9.224-10.327,18.878-14.332,28.898-3.893,9.742-7.005,19.728-9.598,29.884.031.057.024.108-.02.155-1.299,5.576-2.631,11.145-3.504,16.811.051.271.056.531-.176.735-.282,1.332-.563,2.664-.845,3.995,1.578-.188,3.028.433,4.53.721,3.172.607,6.345,1.213,9.517,1.82.147.019.294.038.441.056.106.026.213.052.319.078.79.188,1.487.067,2.014-.612,2.343-3.02,4.778-5.973,7.007-9.074,3.419-4.756,6.729-9.589,9.927-14.5,3.56-5.467,6.962-11.031,10.3-16.632,3.23-5.421,6.315-10.928,9.463-16.398.058-.08.117-.159.175-.239,0,0,.05-.078.05-.078l1.832-3.734"/>
    <path class="cls-6" d="m60.449,207.977c1.578-.188,3.028.433,4.53.721,3.172.607,6.345,1.213,9.517,1.82-1.317.315-1.699,1.494-2.219,2.493-1.681,3.229-1.904,6.652-1.251,10.184.541,2.931,1.089,5.86,1.861,8.74.217.809-.006,1.077-.803,1.041-1.558-.071-2.61-.984-3.512-2.111-.596-.745-1.214-1.503-1.645-2.346-1.64-3.208-5.043-3.136-7.742-2.553-3.495.754-6.774,2.258-10.257,3.08-4.641,1.095-8.811.332-12.401-2.966-1.316-1.209-1.12-3.35.368-4.32,2.976-1.94,6.375-3.007,9.481-4.696,4.019-2.186,7.977-4.459,11.784-6.988.852-.566,1.531-1.392,2.289-2.098Z"/>
    <path class="cls-9" d="m110.985,269.649c-.604-.929.174-1.243.741-1.629,2.294-1.563,5.108-1.751,7.578-2.851.758-.338,1.561-.181,2.344-.186.677-.005,1.315-.056,1.92-.415.312-.185.702-.563.983.132.108.267.52.1.662-.021,1.424-1.219,3.091-.572,4.661-.65.092,2.3.165,4.6.285,6.898.06,1.153.21,2.302-.031,3.45-2.613-.622-5.243-1.158-7.84-1.862-3.515-.953-7.08-1.718-10.621-2.573-.237-.057-.455-.193-.682-.293Z"/>
    <path class="cls-6" d="m106.861,198.211c.121.42.205.837-.115,1.215-.112-.42-.074-.824.115-1.215Z"/>
    <path class="cls-11" d="m149.041,38.04c.187.185.187.402.107.632-.181-.187-.174-.404-.107-.632Z"/>
    <path class="cls-6" d="m111.473,168.248c.048.269.058.529-.171.733-.078-.276-.024-.521.171-.733Z"/>
    <path class="cls-11" d="m157.251,51.759c.001.074-.005.147-.018.22-.233-.026-.465-.052-.697-.077.239-.047.477-.094.715-.142Z"/>
    <path class="cls-6" d="m61.47,203.247c.051.271.056.531-.176.735-.074-.277-.023-.523.176-.735Z"/>
    <path class="cls-11" d="m157.228,51.972c.152.097.279.202.135.397-.045-.133-.09-.265-.135-.397Z"/>
    <path class="cls-6" d="m106.983,197.026c-.01.138-.02.276-.03.413-.133-.148-.104-.284.03-.413Z"/>
    <path class="cls-6" d="m108.215,186.234c-.014.082-.027.163-.041.244-.011-.059-.029-.119-.028-.178,0-.023.045-.045.069-.067Z"/>
    <path class="cls-6" d="m64.994,186.282c.031.057.024.108-.02.155,0,0-.06-.086-.06-.086l.079-.069Z"/>
    <path class="cls-6" d="m74.937,210.574c.106.026.213.052.319.078-.106-.026-.213-.052-.319-.078Z"/>
    <path class="cls-6" d="m113.967,153.436c.058-.08.117-.159.175-.239-.058.08-.117.159-.175.239Z"/>
    <path class="cls-9" d="m159.928,266.023c.375-.069.775-.123,1.089.114,1.186.894,2.551.899,3.93.832,1.103-.054,2.099.144,3.082.736,1.004.605,2.201.188,3.311.26.854.055,1.778-.176,2.337.777.109.186.45.301.54.156.658-1.064,1.242-.18,1.924-.049,1.045.202,2.161.208,3.225.096,1.364-.144,2.33.312,3.019,1.455,1.222,2.519,2.757,4.878,3.864,7.458-2.269.288-4.538.576-6.806.864-.297.035-.594.069-.891.104-.696.168-1.396.098-2.095.033-.064.003-.128.006-.192.009-4.692.182-9.384.171-14.076,0,0,0-.074-.071-.074-.071l-.083.062c-.393.044-.785.073-1.162-.087-.168-.016-.337-.033-.506-.05-.971.104-1.906-.125-2.847-.302-.226-1.491.772-2.774.716-4.235.35-1.031.675-2.068.686-3.172.493-1.631.873-3.285,1.009-4.988Z"/>
    <path class="cls-12" d="m178.552,278.825c.297-.035.594-.069.891-.104-.279.191-.575.233-.891.104Z"/>
    <path class="cls-12" d="m160.364,278.72c.169.017.338.034.506.05-.181.103-.348.078-.506-.05Z"/>
    <polygon class="cls-12" points="162.031 278.858 162.114 278.795 162.189 278.866 162.108 278.899 162.031 278.858"/>
    <path class="cls-12" d="m176.264,278.867c.064-.003.128-.006.192-.009,0,0-.095.039-.095.039l-.098-.03Z"/>
    <path class="cls-11" d="m158.919,271.01c-.011,1.105-.336,2.141-.686,3.172-.023-1.112.355-2.137.686-3.172Z"/>
    <path class="cls-9" d="m198.004,269.751c.238-.025.478-.067.683.109-.245.073-.472.033-.683-.109Z"/>
    <path class="cls-9" d="m197.283,269.912c.087-.039.175-.078.262-.117-.087.039-.174.078-.262.117Z"/>
    <path class="cls-9" d="m199.316,269.793c.043-.036.092-.051.146-.044,0,0-.063.072-.063.072l-.083-.028Z"/>
    <path class="cls-11" d="m157.477,50.963c-.052.165-.105.33-.157.495-.07-.204-.006-.365.157-.495Z"/>
    <path class="cls-9" d="m178.844,183.19c-.089-.316-.095-.618.156-.873-.03.295.062.612-.156.873Z"/>
    <path class="cls-11" d="m176.145,198.791c-.047-.292.015-.553.219-.773.063.297-.036.547-.219.773Z"/>
    <path class="cls-11" d="m176.789,195.912c-.072-.247-.065-.47.182-.622.025.233.006.452-.182.622Z"/>
    <path class="cls-11" d="m177.78,191.908c-.066-.242-.08-.471.159-.636.043.236.028.457-.159.636Z"/>
    <path class="cls-11" d="m177.987,191.118c-.037-.156-.016-.29.136-.377.066.166-.005.282-.136.377Z"/>
    <path class="cls-11" d="m177.09,194.983c.033-.073.066-.146.099-.219-.033.073-.066.146-.099.219Z"/>
    <path class="cls-9" d="m178.826,185.212c-.055-.076-.057-.153-.006-.232.026.054.059.106.074.163.004.016-.044.045-.068.069Z"/>
    <path class="cls-9" d="m178.832,184.203c-.055-.07-.056-.141-.005-.213.024.05.055.099.069.151.004.014-.042.041-.064.062Z"/>
    <path class="cls-9" d="m179.128,181.893l-.015-.091s.079-.05.079-.049c.015.065-.006.112-.064.14Z"/>
    <path class="cls-6" d="m175.989,91.905c-.189-.278-.259-.578-.166-.907.244.269.197.589.166.907Z"/>
    <path class="cls-6" d="m176.936,96.438c-.207-.196-.209-.433-.141-.685.215.194.206.434.141.685Z"/>
    <path class="cls-6" d="m174.314,80.73c-.021-.049-.047-.097-.059-.149-.005-.021.022-.049.034-.073.029.051.064.1.084.154.005.013-.038.045-.059.068Z"/>
    <path class="cls-6" d="m175.019,132.178c-.04-.044-.048-.093-.022-.145,0,0,.066.068.066.068l-.044.077Z"/>
    <path class="cls-6" d="m175.216,133.416l-.085-.069s.067-.084.067-.083c.042.047.048.097.017.152Z"/>
    <path class="cls-6" d="m177.692,149.155l-.077-.081s.044-.096.045-.095c.058.051.068.109.032.176Z"/>
    <path class="cls-6" d="m176.699,142.152c-.03-.042-.065-.083-.087-.129-.005-.01.032-.041.05-.062.057.056.069.12.036.191Z"/>
    <path class="cls-6" d="m179.066,164.198c-.059-.06-.069-.126-.032-.199.029.045.063.088.083.136.005.012-.033.042-.052.063Z"/>
  </g>
  <g class="cls-2">
    <rect class="cls-3" x="219.364" y="406.551" width="60.839" height="7.477"/>
  </g>
  <g class="cls-13">
    <polygon class="cls-3" points="31.406 396.323 21.314 398.113 0 282.236 10.093 280.446 31.406 396.323"/>
  </g>
</svg>