<?xml version="1.0" encoding="UTF-8"?>
<svg id="Layer_1" data-name="Layer 1" xmlns="http://www.w3.org/2000/svg" viewBox="0 0 1870.796 148.586">
  <defs>
    <style>
      .cls-1 {
        stroke: #dadada;
      }

      .cls-1, .cls-2 {
        stroke-width: 30px;
      }

      .cls-1, .cls-2, .cls-3, .cls-4 {
        fill: none;
        stroke-miterlimit: 10;
      }

      .cls-2 {
        stroke: #1d1d1b;
      }

      .cls-3 {
        stroke-dasharray: 0 0 11.986 11.986;
      }

      .cls-3, .cls-4 {
        stroke: #fff;
      }
    </style>
  </defs>
  <path class="cls-2" d="m2.985,100.251c44.441,9.024,108.027,16.163,168.721-2.445,65.56-20.1,69.223-52.297,133.571-66.009,59.246-12.625,136.738-2.505,182.781,28.115,44.811,29.8,35.058,62.54,70.301,72.121,38.602,10.494,60.092-35.262,131.814-45.228,65.806-9.145,91.178,21.343,165.206,20.78,61.848-.47,79.559-22.019,159.934-48.895,16.311-5.454,265.72-86.243,430.591-13.446,28.952,12.784,24.875,16.87,50.968,28.115,107.663,46.396,257.146,11.322,369.078-26.892"/>
  <g>
    <path class="cls-4" d="m2.985,100.251c1.926.391,3.889.779,5.885,1.161"/>
    <path class="cls-3" d="m20.668,103.527c42.75,7.139,97.998,10.54,151.039-5.721,65.56-20.1,69.223-52.297,133.571-66.009,59.246-12.625,136.738-2.505,182.781,28.115,44.811,29.8,35.058,62.54,70.301,72.121,38.602,10.494,60.092-35.262,131.814-45.228,65.806-9.145,91.178,21.343,165.206,20.78,61.848-.47,79.559-22.019,159.934-48.895,16.311-5.454,265.72-86.243,430.591-13.446,28.952,12.784,24.875,16.87,50.968,28.115,104.058,44.842,247.182,13.579,357.71-23.067"/>
    <path class="cls-4" d="m1860.269,48.392c1.904-.641,3.798-1.283,5.682-1.926"/>
  </g>
  <path class="cls-1" d="m690.173,86.805c65.806-9.145,91.178,21.343,165.206,20.78,61.848-.47,79.559-22.019,159.934-48.895,16.311-5.454,265.72-86.243,430.591-13.446,28.952,12.784,24.875,16.87,50.968,28.115,107.663,46.396,257.146,11.322,369.078-26.892"/>
</svg>